<svg xmlns="http://www.w3.org/2000/svg" viewBox="0 0 500 372.61"><defs><style>.cls-1{fill:#ebebeb;}.cls-2{fill:#e6e6e6;}.cls-3{fill:#e0e0e0;}.cls-4{fill:#fafafa;}.cls-5{fill:#f0f0f0;}.cls-6{fill:#f5f5f5;}.cls-10,.cls-11,.cls-16,.cls-17,.cls-7{fill:#fff;}.cls-8{fill:#b55b52;}.cls-15,.cls-9{fill:#407bff;}.cls-10{opacity:0.8;}.cls-11{opacity:0.6;}.cls-12{fill:#263238;}.cls-13,.cls-15,.cls-16{opacity:0.2;}.cls-14{fill:#a02724;}.cls-17{opacity:0.4;}</style></defs><g id="Background_Complete" data-name="Background Complete"><rect class="cls-1" y="327.45" width="500" height="0.25"/><rect class="cls-1" x="416.78" y="343.54" width="33.12" height="0.25"/><rect class="cls-1" x="322.53" y="346.26" width="8.69" height="0.25"/><rect class="cls-1" x="396.59" y="334.26" width="19.19" height="0.25"/><rect class="cls-1" x="52.46" y="335.94" width="43.19" height="0.25"/><rect class="cls-1" x="104.56" y="335.94" width="6.33" height="0.25"/><rect class="cls-1" x="131.47" y="340.16" width="93.68" height="0.25"/><path class="cls-1" d="M237,337.8H43.91a5.71,5.71,0,0,1-5.7-5.71V60.66A5.71,5.71,0,0,1,43.91,55H237a5.71,5.71,0,0,1,5.71,5.71V332.09A5.71,5.71,0,0,1,237,337.8ZM43.91,55.2a5.46,5.46,0,0,0-5.45,5.46V332.09a5.46,5.46,0,0,0,5.45,5.46H237a5.47,5.47,0,0,0,5.46-5.46V60.66A5.47,5.47,0,0,0,237,55.2Z" transform="translate(0 -54.95)"/><path class="cls-1" d="M453.31,337.8H260.21a5.72,5.72,0,0,1-5.71-5.71V60.66A5.72,5.72,0,0,1,260.21,55h193.1A5.71,5.71,0,0,1,459,60.66V332.09A5.71,5.71,0,0,1,453.31,337.8ZM260.21,55.2a5.47,5.47,0,0,0-5.46,5.46V332.09a5.47,5.47,0,0,0,5.46,5.46h193.1a5.47,5.47,0,0,0,5.46-5.46V60.66a5.47,5.47,0,0,0-5.46-5.46Z" transform="translate(0 -54.95)"/><rect class="cls-2" x="66.96" y="56.28" width="59.65" height="88.92"/><rect class="cls-3" x="126.62" y="111.23" width="0.94" height="88.92" transform="translate(254.17 256.44) rotate(180)"/><rect class="cls-4" x="55.71" y="129.24" width="82.17" height="52.9" transform="translate(252.48 3.95) rotate(90)"/><circle class="cls-5" cx="96.79" cy="138.95" r="14.14" transform="translate(-69.9 54.19) rotate(-45)"/><rect class="cls-1" x="79.34" y="106.32" width="34.89" height="3.57"/><rect class="cls-1" x="79.34" y="115.82" width="34.89" height="3.57"/><rect class="cls-1" x="79.34" y="125.31" width="34.89" height="3.57"/><rect class="cls-2" x="141.92" y="69.09" width="59.65" height="88.92"/><rect class="cls-3" x="201.58" y="124.04" width="0.94" height="88.92" transform="translate(404.09 282.04) rotate(180)"/><rect class="cls-4" x="130.67" y="142.05" width="82.17" height="52.9" transform="translate(340.25 -58.21) rotate(90)"/><circle class="cls-5" cx="171.75" cy="151.75" r="14.14" transform="translate(-15.41 229.09) rotate(-76.72)"/><rect class="cls-1" x="154.3" y="119.13" width="34.89" height="3.57"/><rect class="cls-1" x="154.3" y="128.62" width="34.89" height="3.57"/><rect class="cls-1" x="154.3" y="138.11" width="34.89" height="3.57"/><rect class="cls-1" x="151.24" y="195.05" width="260.69" height="2.78"/><rect class="cls-3" x="411.93" y="250" width="21.11" height="2.78" transform="translate(844.96 447.83) rotate(180)"/><rect class="cls-6" x="154.81" y="197.83" width="257.11" height="129.62"/><rect class="cls-2" x="211.04" y="197.83" width="1.44" height="129.62"/><rect class="cls-2" x="279.04" y="224.18" width="1.44" height="103.26"/><rect class="cls-2" x="182.56" y="327.57" width="1.44" height="56.94" transform="translate(539.33 117.8) rotate(90)"/><rect class="cls-2" x="182.56" y="301.93" width="1.44" height="56.94" transform="translate(513.69 92.17) rotate(90)"/><rect class="cls-2" x="182.56" y="276.3" width="1.44" height="56.94" transform="translate(488.06 66.53) rotate(90)"/><rect class="cls-2" x="282.65" y="150.58" width="1.44" height="257.11" transform="translate(562.51 -59.19) rotate(90)"/><rect class="cls-1" x="411.93" y="252.78" width="18.47" height="129.62" transform="translate(842.33 580.22) rotate(180)"/><rect class="cls-4" x="325.27" y="21.76" width="91" height="129.58"/><path class="cls-1" d="M417.27,78.27h-93a1.55,1.55,0,0,1-1.55-1.56h0a1.54,1.54,0,0,1,1.55-1.55h93a1.55,1.55,0,0,1,1.56,1.55h0A1.56,1.56,0,0,1,417.27,78.27Z" transform="translate(0 -54.95)"/><path class="cls-1" d="M417.27,207.85h-93a1.55,1.55,0,0,1-1.55-1.56h0a1.54,1.54,0,0,1,1.55-1.55h93a1.55,1.55,0,0,1,1.56,1.55h0A1.56,1.56,0,0,1,417.27,207.85Z" transform="translate(0 -54.95)"/><rect class="cls-5" x="356.77" y="53.76" width="28" height="42.5" rx="10.59"/><path class="cls-5" d="M362.77,194.38h0a6,6,0,0,1-6-6V143.05a6,6,0,0,1,6-6h0a6,6,0,0,1,6,6v45.33A6,6,0,0,1,362.77,194.38Z" transform="translate(0 -54.95)"/><rect class="cls-5" x="347.48" y="58.91" width="7.17" height="34.24" rx="3.58"/><path class="cls-5" d="M390.48,148.11h0a3.6,3.6,0,0,1-3.58-3.59V117.45a3.6,3.6,0,0,1,3.58-3.59h0a3.61,3.61,0,0,1,3.59,3.59v27.07A3.61,3.61,0,0,1,390.48,148.11Z" transform="translate(0 -54.95)"/><path class="cls-5" d="M378.77,194.38h0a6,6,0,0,1-6-6V143.05a6,6,0,0,1,6-6h0a6,6,0,0,1,6,6v45.33A6,6,0,0,1,378.77,194.38Z" transform="translate(0 -54.95)"/><circle class="cls-5" cx="370.77" cy="95.88" r="8.83" transform="translate(40.8 235.31) rotate(-45)"/><rect class="cls-6" x="339.27" y="169.71" width="41.89" height="25.33"/><rect class="cls-1" x="381.16" y="224.67" width="10.32" height="25.33" transform="translate(772.64 419.71) rotate(180)"/><polygon class="cls-7" points="368.22 179.96 362.63 179.96 362.63 174.38 357.8 174.38 357.8 179.96 352.22 179.96 352.22 184.8 357.8 184.8 357.8 190.38 362.63 190.38 362.63 184.8 368.22 184.8 368.22 179.96"/><path class="cls-1" d="M302.59,250h-4V205.19a15.11,15.11,0,1,0-30.22,0h-4a19.11,19.11,0,1,1,38.22,0Z" transform="translate(0 -54.95)"/><rect class="cls-1" x="306.04" y="188.49" width="4" height="6.56"/><rect class="cls-1" x="178.83" y="192.71" width="4" height="2.33"/><rect class="cls-1" x="171.74" y="192.71" width="4" height="2.33"/><rect class="cls-6" x="85.74" y="254.32" width="52.07" height="73.13"/><rect class="cls-2" x="87.76" y="252.48" width="48.02" height="1.84"/><path class="cls-6" d="M102.23,290.94h19.08a16.5,16.5,0,0,1,16.5,16.5H85.74A16.49,16.49,0,0,1,102.23,290.94Z" transform="translate(0 -54.95)"/><path class="cls-2" d="M92.66,374.38H87.15a8,8,0,0,0-8,8h21.56A8,8,0,0,0,92.66,374.38Z" transform="translate(0 -54.95)"/></g><g id="Shadow"><ellipse id="_Path_" data-name="&lt;Path&gt;" class="cls-6" cx="250" cy="361.29" rx="193.89" ry="11.32"/></g><g id="Character"><path class="cls-8" d="M191.71,146.13l-4.54-5.56-6.34,4s2.9,3.1,6.42,7.43Z" transform="translate(0 -54.95)"/><path class="cls-9" d="M248.32,146.58c-.26.56-.44.9-.66,1.33l-.63,1.2c-.43.79-.85,1.57-1.3,2.34q-1.32,2.3-2.77,4.52a80.45,80.45,0,0,1-6.42,8.67,52.65,52.65,0,0,1-8.3,7.9,34.9,34.9,0,0,1-5.36,3.26l-1.51.67-1.59.59c-.53.19-1.1.33-1.66.49l-.42.12-.6.13c-.44.09-.87.15-1.29.2a15.34,15.34,0,0,1-4.58-.24,20,20,0,0,1-3.61-1.07,31.79,31.79,0,0,1-5.56-2.95,65.21,65.21,0,0,1-8.53-6.86c-2.57-2.39-4.95-4.86-7.23-7.38-1.14-1.27-2.27-2.53-3.37-3.83s-2.15-2.55-3.29-4l11.06-8.58c.86,1.09,1.89,2.34,2.88,3.49s2,2.33,3.06,3.46c2.1,2.25,4.25,4.42,6.46,6.41a48.63,48.63,0,0,0,6.71,5.16,17.27,17.27,0,0,0,3,1.53c.86.33,1.5.32,1.31.27h-.1s-.08,0,0,0l.17-.05c.22-.09.43-.14.66-.23l.67-.29.7-.35a19.91,19.91,0,0,0,2.84-1.91,34.77,34.77,0,0,0,5.49-5.75,62.25,62.25,0,0,0,4.77-7.19q1.1-1.92,2.07-3.9c.33-.65.65-1.31,1-2l.44-1c.13-.3.3-.69.37-.87Z" transform="translate(0 -54.95)"/><path class="cls-10" d="M248.32,146.58c-.26.56-.44.9-.66,1.33l-.63,1.2c-.43.79-.85,1.57-1.3,2.34q-1.32,2.3-2.77,4.52a80.45,80.45,0,0,1-6.42,8.67,52.65,52.65,0,0,1-8.3,7.9,34.9,34.9,0,0,1-5.36,3.26l-1.51.67-1.59.59c-.53.19-1.1.33-1.66.49l-.42.12-.6.13c-.44.09-.87.15-1.29.2a15.34,15.34,0,0,1-4.58-.24,20,20,0,0,1-3.61-1.07,31.79,31.79,0,0,1-5.56-2.95,65.21,65.21,0,0,1-8.53-6.86c-2.57-2.39-4.95-4.86-7.23-7.38-1.14-1.27-2.27-2.53-3.37-3.83s-2.15-2.55-3.29-4l11.06-8.58c.86,1.09,1.89,2.34,2.88,3.49s2,2.33,3.06,3.46c2.1,2.25,4.25,4.42,6.46,6.41a48.63,48.63,0,0,0,6.71,5.16,17.27,17.27,0,0,0,3,1.53c.86.33,1.5.32,1.31.27h-.1s-.08,0,0,0l.17-.05c.22-.09.43-.14.66-.23l.67-.29.7-.35a19.91,19.91,0,0,0,2.84-1.91,34.77,34.77,0,0,0,5.49-5.75,62.25,62.25,0,0,0,4.77-7.19q1.1-1.92,2.07-3.9c.33-.65.65-1.31,1-2l.44-1c.13-.3.3-.69.37-.87Z" transform="translate(0 -54.95)"/><polygon class="cls-9" points="246.1 251.45 278.38 251.45 266.14 190.27 250.33 190.27 246.1 251.45"/><polygon class="cls-11" points="246.1 251.45 278.38 251.45 266.14 190.27 250.33 190.27 246.1 251.45"/><polygon class="cls-8" points="253.02 352.15 244.79 352.15 244.44 333.1 252.67 333.1 253.02 352.15"/><polygon class="cls-8" points="298.59 352.15 290.36 352.15 286.69 333.1 294.92 333.1 298.59 352.15"/><path class="cls-12" d="M289.8,406.15H299a.7.7,0,0,1,.69.56l1.44,7.31a1.24,1.24,0,0,1-1.24,1.46c-3.22-.05-4.78-.24-8.85-.24-2.5,0-7.66.26-11.11.26s-3.82-3.41-2.4-3.72c6.37-1.39,8.81-3.3,10.88-5.13A2.11,2.11,0,0,1,289.8,406.15Z" transform="translate(0 -54.95)"/><path class="cls-12" d="M244.87,406.15h9a.69.69,0,0,1,.68.56L256,414a1.24,1.24,0,0,1-1.22,1.47c-3.24-.06-7.92-.25-12-.25-4.76,0-5.15.26-10.73.26-3.38,0-4.23-3.41-2.81-3.72,6.47-1.41,8-1.56,13.64-5A3.88,3.88,0,0,1,244.87,406.15Z" transform="translate(0 -54.95)"/><path class="cls-8" d="M184.1,138.67l-5.32-.08-1,6.86a18.35,18.35,0,0,0,10.08-1l-.09-2.23A3.71,3.71,0,0,0,184.1,138.67Z" transform="translate(0 -54.95)"/><polygon class="cls-8" points="170.46 83.95 171.49 88.29 177.76 90.5 178.78 83.64 170.46 83.95"/><polygon class="cls-13" points="244.44 333.11 244.62 342.92 252.85 342.92 252.67 333.11 244.44 333.11"/><polygon class="cls-13" points="294.92 333.11 286.69 333.11 288.59 342.92 296.82 342.92 294.92 333.11"/><path class="cls-7" d="M234.73,141.47c-2.28,8.72-6.37,30.72-1.9,65.71h44c.43-6.13-2.37-33.86,2.58-62.73a8.74,8.74,0,0,0-7.62-10.21c-1.71-.19-3.52-.35-5.31-.44a152.9,152.9,0,0,0-18.43.6,45.49,45.49,0,0,0-7.73,1.42A7.92,7.92,0,0,0,234.73,141.47Z" transform="translate(0 -54.95)"/><path class="cls-8" d="M264.46,116.31c-1.33,6-2.1,13.47,2,17.49,0,0-2.57,6.1-13.75,6.1-10.22,0-5-6.1-5-6.1,6.75-1.6,6.61-9.9,5.55-14.58Z" transform="translate(0 -54.95)"/><path class="cls-9" d="M252.2,139.07l-2.42,2.67a.7.7,0,0,0-.15.7l.77,2.36a.68.68,0,0,0,.62.47l2.61.13a.72.72,0,0,0,.63-.32l1.56-2.29a.71.71,0,0,0,0-.86l-2.52-2.87A.7.7,0,0,0,252.2,139.07Z" transform="translate(0 -54.95)"/><path class="cls-9" d="M251.59,145.25s-4,29.44-4.09,34.57a49.66,49.66,0,0,0,2.26,14.28s2.75-5.2,3.22-14.5-.1-29.13.11-34.35Z" transform="translate(0 -54.95)"/><path class="cls-13" d="M253.32,119.23c.63,2.74.93,6.72-.29,9.88.8.35,4.1-.92,5.47-1.79,3.05-1.94,4.23-3.84,5.35-7.89.18-1.07.38-2.11.61-3.12Z" transform="translate(0 -54.95)"/><path class="cls-8" d="M242.88,113.38a7.55,7.55,0,0,0,4.09,4.19c2.49,1,4.1-1.18,3.7-3.73-.35-2.29-2.08-5.59-4.72-5.52A3.59,3.59,0,0,0,242.88,113.38Z" transform="translate(0 -54.95)"/><path class="cls-13" d="M242.88,113.38a7.55,7.55,0,0,0,4.09,4.19c2.49,1,4.1-1.18,3.7-3.73-.35-2.29-2.08-5.59-4.72-5.52A3.59,3.59,0,0,0,242.88,113.38Z" transform="translate(0 -54.95)"/><path class="cls-12" d="M253,104.37c-.47,3.52-2.67,6.14-4.91,5.84s-3.67-3.4-3.19-6.93,2.67-6.15,4.91-5.85S253.5,100.84,253,104.37Z" transform="translate(0 -54.95)"/><path class="cls-8" d="M268.4,108.51c-2,8-2.78,12.76-7.59,16.22-7.22,5.21-16.37-.15-16.75-8.53-.35-7.54,3-19.34,11.4-21.24A10.89,10.89,0,0,1,268.4,108.51Z" transform="translate(0 -54.95)"/><path class="cls-12" d="M255.12,92.17c-4.79,1-10.09,4.91-5.52,7.76s14.86,3.29,14.86,3.29-3.4,8,1.25,12.13c1.55-.77-1.76,6.21-1.76,6.21a7.28,7.28,0,0,0,4-3.36c2.78-.71,11-14,5.52-17.76C272.43,92.69,261.55,90.78,255.12,92.17Z" transform="translate(0 -54.95)"/><path class="cls-7" d="M266.68,113.33l-.11,0-7.2-3.3a.26.26,0,1,1,.21-.47l7.21,3.3a.26.26,0,0,1,.13.34A.26.26,0,0,1,266.68,113.33Z" transform="translate(0 -54.95)"/><path class="cls-8" d="M270.33,118a7.9,7.9,0,0,1-5.37,2.59c-2.71.14-3.41-2.45-2.11-4.71,1.17-2,4-4.56,6.44-3.63S272,116.11,270.33,118Z" transform="translate(0 -54.95)"/><path class="cls-9" d="M232.83,207.18s-2.64,61.5-2.36,86.59c.29,26.09,11.14,102.2,11.14,102.2h13.93s-1.25-74.59,0-100.21c1.36-27.94,6.22-88.58,6.22-88.58Z" transform="translate(0 -54.95)"/><path class="cls-12" d="M256.19,389.82c.07,0,.26,6.44.26,6.44H240.39l-.92-7Z" transform="translate(0 -54.95)"/><path class="cls-13" d="M251.68,223.46c-.48,30.52.9,49.06,4.31,64,.84-14.56,2.21-33.81,3.42-49.8Z" transform="translate(0 -54.95)"/><path class="cls-9" d="M248.44,207.18s7.8,62.86,12.34,86.41c5,25.79,24,102.38,24,102.38h15.07s-11.89-74.5-14.47-100c-2.79-27.71-8.57-88.75-8.57-88.75Z" transform="translate(0 -54.95)"/><path class="cls-12" d="M299.49,390.16c.07,0,1.12,6.1,1.12,6.1H284.05l-1.82-6.72Z" transform="translate(0 -54.95)"/><path class="cls-12" d="M255.89,108.72c-.13.66-.57,1.13-1,1.06s-.67-.66-.55-1.32.57-1.13,1-1.06S256,108.06,255.89,108.72Z" transform="translate(0 -54.95)"/><path class="cls-12" d="M247.82,106.82c-.12.66-.57,1.13-1,1.06s-.67-.66-.55-1.32.57-1.13,1-1.06S247.94,106.16,247.82,106.82Z" transform="translate(0 -54.95)"/><path class="cls-14" d="M251.18,108.47a24.69,24.69,0,0,1-4.74,4.57,3.74,3.74,0,0,0,2.84,1.46Z" transform="translate(0 -54.95)"/><path class="cls-12" d="M251.2,116.55a.2.2,0,0,1-.15-.23.2.2,0,0,1,.23-.16,5.33,5.33,0,0,0,4.57-1.32.19.19,0,1,1,.28.26A5.63,5.63,0,0,1,251.2,116.55Z" transform="translate(0 -54.95)"/><path class="cls-12" d="M259.8,106.58a.37.37,0,0,1-.26-.23,3,3,0,0,0-2-1.89.39.39,0,0,1-.3-.46.4.4,0,0,1,.46-.31,3.71,3.71,0,0,1,2.61,2.36.41.41,0,0,1-.23.51A.4.4,0,0,1,259.8,106.58Z" transform="translate(0 -54.95)"/><path class="cls-12" d="M245.75,103.67a.31.31,0,0,1-.15-.08.4.4,0,0,1,0-.55,4,4,0,0,1,3.25-1.51.38.38,0,0,1,.33.43.39.39,0,0,1-.43.35h0a3.12,3.12,0,0,0-2.55,1.23A.41.41,0,0,1,245.75,103.67Z" transform="translate(0 -54.95)"/><path class="cls-7" d="M255.74,113.4a4,4,0,0,1-.59-.05,3.61,3.61,0,0,1-2.32-1.53,4.66,4.66,0,0,1-.7-3.5,4.22,4.22,0,0,1,4.61-3.68,3.64,3.64,0,0,1,2.32,1.53,4.7,4.7,0,0,1,.7,3.5h0A4.33,4.33,0,0,1,255.74,113.4Zm.4-8.29a3.8,3.8,0,0,0-3.5,3.3,4.19,4.19,0,0,0,.61,3.12,3.11,3.11,0,0,0,2,1.31,3.69,3.69,0,0,0,4-3.26,4.19,4.19,0,0,0-.62-3.12,3.09,3.09,0,0,0-2-1.31A2.92,2.92,0,0,0,256.14,105.11Zm3.36,4.52h0Z" transform="translate(0 -54.95)"/><path class="cls-7" d="M252.38,108.62a.26.26,0,0,1-.21-.11,1.5,1.5,0,0,0-1.84-.75.27.27,0,0,1-.34-.14.26.26,0,0,1,.13-.34,2.05,2.05,0,0,1,2.48.94.26.26,0,0,1-.08.36A.23.23,0,0,1,252.38,108.62Z" transform="translate(0 -54.95)"/><path class="cls-7" d="M246.47,111.29a4,4,0,0,1-.6-.05,3.61,3.61,0,0,1-2.32-1.53,4.7,4.7,0,0,1-.7-3.5,4.21,4.21,0,0,1,4.61-3.67,3.56,3.56,0,0,1,2.32,1.52,4.72,4.72,0,0,1,.7,3.51h0A4.32,4.32,0,0,1,246.47,111.29Zm.39-8.29a3.8,3.8,0,0,0-3.5,3.3,4.15,4.15,0,0,0,.62,3.12,3.09,3.09,0,0,0,2,1.31,3.69,3.69,0,0,0,4-3.26,4.16,4.16,0,0,0-.62-3.12,3.13,3.13,0,0,0-2-1.31A2.92,2.92,0,0,0,246.86,103Zm3.37,4.52Z" transform="translate(0 -54.95)"/><path class="cls-9" d="M287,407.58a2.47,2.47,0,0,1-1.57-.41,1.17,1.17,0,0,1-.38-1,.67.67,0,0,1,.35-.56c.91-.46,3.53,1.17,3.83,1.35a.18.18,0,0,1,.08.2.19.19,0,0,1-.15.16A9.65,9.65,0,0,1,287,407.58Zm-1.18-1.7a.62.62,0,0,0-.25.05.25.25,0,0,0-.13.23.79.79,0,0,0,.25.71c.44.38,1.51.43,2.92.15A7.73,7.73,0,0,0,285.86,405.88Z" transform="translate(0 -54.95)"/><path class="cls-9" d="M289.16,407.3a.14.14,0,0,1-.09,0c-.84-.46-2.45-2.26-2.25-3.18a.66.66,0,0,1,.63-.51,1.06,1.06,0,0,1,.83.25c.93.78,1.07,3.15,1.08,3.26a.24.24,0,0,1-.2.21ZM287.58,404h-.09c-.25,0-.28.14-.29.19-.11.54.9,1.91,1.73,2.55a4.61,4.61,0,0,0-.91-2.58A.67.67,0,0,0,287.58,404Z" transform="translate(0 -54.95)"/><path class="cls-9" d="M241.42,407.59a3.06,3.06,0,0,1-2-.51,1.05,1.05,0,0,1-.34-.95.62.62,0,0,1,.33-.51c1-.57,4.28,1.11,4.65,1.31a.19.19,0,0,1-.06.36A14,14,0,0,1,241.42,407.59ZM240,405.88a.94.94,0,0,0-.37.07.24.24,0,0,0-.12.21.68.68,0,0,0,.22.63c.49.45,1.84.53,3.67.22A10.6,10.6,0,0,0,240,405.88Z" transform="translate(0 -54.95)"/><path class="cls-9" d="M244,407.3l-.08,0c-1-.45-2.9-2.22-2.73-3.16,0-.21.2-.49.74-.54a1.37,1.37,0,0,1,1.07.33c1,.86,1.19,3.08,1.2,3.17a.23.23,0,0,1-.08.18A.28.28,0,0,1,244,407.3ZM242.05,404h-.12c-.35,0-.38.17-.39.22-.1.55,1.2,1.95,2.2,2.56a4.5,4.5,0,0,0-1-2.54A1,1,0,0,0,242.05,404Z" transform="translate(0 -54.95)"/><path class="cls-9" d="M267,133.25l9.5,1.14a6.33,6.33,0,0,1,5.58,6.5c-.48,14.81-2.44,35.16-.87,66.29.79,15.7,11.76,100.95,11.76,100.95l-21.61,3.79A550.68,550.68,0,0,1,249.76,211.4a219,219,0,0,1-.16-44.6Z" transform="translate(0 -54.95)"/><path class="cls-10" d="M267,133.25l9.5,1.14a6.33,6.33,0,0,1,5.58,6.5c-.48,14.81-2.44,35.16-.87,66.29.79,15.7,11.76,100.95,11.76,100.95l-21.61,3.79A550.68,550.68,0,0,1,249.76,211.4a219,219,0,0,1-.16-44.6Z" transform="translate(0 -54.95)"/><path class="cls-15" d="M274.76,152.15c0,2.22,1.7,13.52,5.91,21.32.12-5.32.31-10.18.53-14.64Z" transform="translate(0 -54.95)"/><path class="cls-15" d="M233.87,150.17c-1.22,2.33-4.74,12.21-6.53,23,.82-.57,1.6-1.16,2.35-1.76a56.25,56.25,0,0,0,7.58-7.63l.44-.54Z" transform="translate(0 -54.95)"/><path class="cls-9" d="M246.93,134.22l-5.61.68a11.4,11.4,0,0,0-10,10.89c-.64,16.62-1.94,49.82-2.65,61.39-1,15.69-.29,100.95-.29,100.95l13.47,2.36s3.42-46.94,7.95-99.09a407.73,407.73,0,0,0,.83-46.52Z" transform="translate(0 -54.95)"/><path class="cls-10" d="M246.93,134.22l-5.61.68a11.4,11.4,0,0,0-10,10.89c-.64,16.62-1.94,49.82-2.65,61.39-1,15.69-.29,100.95-.29,100.95l13.47,2.36s3.42-46.94,7.95-99.09a407.73,407.73,0,0,0,.83-46.52Z" transform="translate(0 -54.95)"/><path class="cls-6" d="M252.73,138.83a29.56,29.56,0,0,1,3,6.42s13.13-4.51,12.66-11.74c0,0-2-1.18-3.2-2.14C265.18,131.37,264.59,135.93,252.73,138.83Z" transform="translate(0 -54.95)"/><path class="cls-6" d="M252.73,138.83a25.27,25.27,0,0,0-3.73,5.72,9.58,9.58,0,0,1-3.31-10.75,24.41,24.41,0,0,1,3.61-1.14S248.35,137.28,252.73,138.83Z" transform="translate(0 -54.95)"/><polygon class="cls-15" points="266.37 156.6 281.42 169.53 271.14 164.5 266.37 156.6"/><path class="cls-9" d="M281.48,138.18c.64.89,1.12,1.59,1.66,2.38l1.53,2.31q1.5,2.32,2.91,4.69c1.89,3.17,3.67,6.41,5.31,9.8a79.78,79.78,0,0,1,4.31,10.73,46.56,46.56,0,0,1,1.48,6,35.2,35.2,0,0,1,.51,6.66,42.45,42.45,0,0,1-2.41,12.34,70.13,70.13,0,0,1-4.72,10.59,101.57,101.57,0,0,1-5.85,9.53q-1.56,2.29-3.22,4.5c-.55.74-1.12,1.48-1.7,2.21s-1.13,1.41-1.85,2.25L268.87,213c.4-.48,1-1.16,1.44-1.78l1.48-1.92c1-1.3,1.92-2.62,2.83-4a86.77,86.77,0,0,0,4.93-8.28,54.45,54.45,0,0,0,3.57-8.49,26.72,26.72,0,0,0,1.41-8,24.86,24.86,0,0,0-1.61-7.75,59.54,59.54,0,0,0-3.81-8.42c-1.52-2.8-3.21-5.58-5-8.29-.91-1.35-1.85-2.69-2.81-4l-1.46-1.95c-.48-.62-1-1.32-1.43-1.81Z" transform="translate(0 -54.95)"/><path class="cls-10" d="M281.48,138.18c.64.89,1.12,1.59,1.66,2.38l1.53,2.31q1.5,2.32,2.91,4.69c1.89,3.17,3.67,6.41,5.31,9.8a79.78,79.78,0,0,1,4.31,10.73,46.56,46.56,0,0,1,1.48,6,35.2,35.2,0,0,1,.51,6.66,42.45,42.45,0,0,1-2.41,12.34,70.13,70.13,0,0,1-4.72,10.59,101.57,101.57,0,0,1-5.85,9.53q-1.56,2.29-3.22,4.5c-.55.74-1.12,1.48-1.7,2.21s-1.13,1.41-1.85,2.25L268.87,213c.4-.48,1-1.16,1.44-1.78l1.48-1.92c1-1.3,1.92-2.62,2.83-4a86.77,86.77,0,0,0,4.93-8.28,54.45,54.45,0,0,0,3.57-8.49,26.72,26.72,0,0,0,1.41-8,24.86,24.86,0,0,0-1.61-7.75,59.54,59.54,0,0,0-3.81-8.42c-1.52-2.8-3.21-5.58-5-8.29-.91-1.35-1.85-2.69-2.81-4l-1.46-1.95c-.48-.62-1-1.32-1.43-1.81Z" transform="translate(0 -54.95)"/><path class="cls-12" d="M268,155.52a3.53,3.53,0,0,1-4,2.06,2.51,2.51,0,0,1-1.75-3.49,3.52,3.52,0,0,1,4-2.05A2.5,2.5,0,0,1,268,155.52Z" transform="translate(0 -54.95)"/><path class="cls-16" d="M268,155.52a3.53,3.53,0,0,1-4,2.06,2.51,2.51,0,0,1-1.75-3.49,3.52,3.52,0,0,1,4-2.05A2.5,2.5,0,0,1,268,155.52Z" transform="translate(0 -54.95)"/><path class="cls-12" d="M264.71,154a.39.39,0,0,1-.23-.07.39.39,0,0,1-.09-.54c7.44-10.35,5.36-19.55,5.34-19.64a.39.39,0,1,1,.75-.18c0,.09,2.2,9.62-5.46,20.27A.36.36,0,0,1,264.71,154Z" transform="translate(0 -54.95)"/><path class="cls-12" d="M238.77,148.75a.4.4,0,0,1-.39-.36c-.81-10.16,4.57-13.91,4.8-14.06a.4.4,0,0,1,.54.1.39.39,0,0,1-.11.54c-.05,0-5.23,3.68-4.45,13.36a.39.39,0,0,1-.36.41Z" transform="translate(0 -54.95)"/><path class="cls-12" d="M266.91,155.25a3.54,3.54,0,0,1-4,2.06,2.5,2.5,0,0,1-1.75-3.49,3.52,3.52,0,0,1,4-2A2.51,2.51,0,0,1,266.91,155.25Z" transform="translate(0 -54.95)"/><path class="cls-17" d="M266.91,155.25a3.54,3.54,0,0,1-4,2.06,2.5,2.5,0,0,1-1.75-3.49,3.52,3.52,0,0,1,4-2A2.51,2.51,0,0,1,266.91,155.25Z" transform="translate(0 -54.95)"/><path class="cls-17" d="M265.23,154.71a1.86,1.86,0,0,1-2.11,1.08,1.32,1.32,0,0,1-.92-1.83,1.87,1.87,0,0,1,2.11-1.08A1.32,1.32,0,0,1,265.23,154.71Z" transform="translate(0 -54.95)"/><path class="cls-12" d="M241.81,172.39a.39.39,0,0,1-.38-.39.38.38,0,0,1,.38-.39,3,3,0,0,0,2.9-2.73l.74-13a6.63,6.63,0,0,0-6.68-7.08,7.65,7.65,0,0,0-7.54,7.13l-.75,13a2.5,2.5,0,0,0,2.54,2.69.39.39,0,0,1,.39.39.4.4,0,0,1-.39.39,3.29,3.29,0,0,1-3.31-3.51l.75-13a8.43,8.43,0,0,1,8.31-7.86,7.4,7.4,0,0,1,7.45,7.91l-.74,13A3.72,3.72,0,0,1,241.81,172.39Z" transform="translate(0 -54.95)"/><path class="cls-12" d="M233.66,172c0,.62-.35,1.13-.7,1.13s-.62-.51-.58-1.13.35-1.14.71-1.14S233.7,171.37,233.66,172Z" transform="translate(0 -54.95)"/><path class="cls-12" d="M242.46,172c0,.62-.35,1.13-.71,1.13s-.62-.51-.58-1.13.35-1.14.71-1.14S242.49,171.37,242.46,172Z" transform="translate(0 -54.95)"/></g><g id="Heart"><path class="cls-9" d="M161.94,93l-.71-.51A16.86,16.86,0,0,1,180,86.38l-.27.84A16,16,0,0,0,161.94,93Z" transform="translate(0 -54.95)"/><path class="cls-9" d="M158.92,102l-.88,0a16.8,16.8,0,0,1,.81-4.7l.84.27A15.81,15.81,0,0,0,158.92,102Z" transform="translate(0 -54.95)"/><path class="cls-9" d="M205.93,102.7a13.76,13.76,0,0,0-18.81-6.57,13.76,13.76,0,0,0-18.75-5.85c-6.67,3.58-9,12.06-5.53,18.81l9,17.57a7.3,7.3,0,0,0,9.84,3.17l17.64-9A14,14,0,0,0,205.93,102.7Z" transform="translate(0 -54.95)"/></g></svg>